# xmcd
#
# Track frame offsets:
#	150
#	20782
#	35803
#	52230
#	68653
#	85353
#	102708
#	119560
#	134037
#	155594
#
# Disc length: 2273 seconds
# Revision: 0
# Processed by: cddbd v1.5.2PL0 Copyright (c) Steve Scherf et al.
# Submitted via: dBpowerAMP V12.0
#
DISCID=9f08df0a
DTITLE=The South Austin Moonlighters - Travel Light
DYEAR=2019
DGENRE=Americana
TTITLE0=Feels Like Home
TTITLE1=Travel Light
TTITLE2=Nowhere Left To Run
TTITLE3=Girl From Texas
TTITLE4=Cartersville Rain
TTITLE5=Machine Gun Kelly
TTITLE6=Carry Me On (Big City Life)
TTITLE7=Born Lucky
TTITLE8=Dug Down Deep
TTITLE9=Find The Cost Of Freedom (Daylight Again)
EXTD=
EXTT0=
EXTT1=
EXTT2=
EXTT3=
EXTT4=
EXTT5=
EXTT6=
EXTT7=
EXTT8=
EXTT9=
PLAYORDER=
